
<svg xmlns="http://www.w3.org/2000/svg" version="1.1" xmlns:xlink="http://www.w3.org/1999/xlink" preserveAspectRatio="none" x="0px" y="0px" width="1321px" height="44px" viewBox="0 0 1321 44">
<defs>
<g id="Layer0_0_FILL">
<path fill="#CE2620" stroke="none" d="
M 2083.45 17.15
Q 2080.95 16.3 2077.2 16.3
L 2056.1 16.3 2056.1 18.45 2060.3 18.45
Q 2062.65 18.45 2062.65 20.25
L 2062.65 52.8
Q 2062.65 54.85 2059.95 54.85
L 2056.1 54.85 2056.1 56.95 2079.35 56.7
Q 2086.65 55.85 2090.75 50.55 2092.75 47.85 2093.95 44.3 2094.9 41 2094.9 36.55 2094.9 31.55 2093.35 27.4 2091.8 23.45 2088.8 20.55 2086.05 18.15 2083.45 17.15
M 2075.45 18.45
Q 2082.05 18.45 2085.1 23 2088.2 27.6 2088.2 37.3 2088.2 46.45 2085.1 50.65 2081.9 54.85 2074.95 54.85
L 2071.5 54.85
Q 2068.5 54.85 2068.5 52.8
L 2068.5 20.45
Q 2068.5 18.45 2070.9 18.45
L 2075.45 18.45
M 2120.75 44.3
Q 2120.75 37.85 2117.45 34.15 2114.35 30.4 2109.05 30.4 2103.75 30.4 2100.5 34.3 2097.05 38.25 2097.05 44.45 2097.05 50.3 2100.5 54 2104.05 57.7 2109.2 57.7 2116.75 57.7 2120.9 49.95
L 2119 49.1
Q 2115.75 55.3 2110.3 55.3 2105.65 55.3 2103.35 51 2102.75 49.8 2102.5 48.15
L 2102.2 44.3 2120.75 44.3
M 2109.05 32.15
Q 2111.75 32.15 2113.6 34.3 2115.45 36.45 2115.45 39.55 2115.45 42.3 2113.35 42.3
L 2102.2 42.3
Q 2102.2 37.4 2104.2 34.7 2106 32.15 2109.05 32.15
M 2123.5 40.4
L 2125.45 40.4
Q 2126.15 36.3 2127.6 34.7 2128.9 33.25 2132 33.25
L 2138.8 33.25 2122.6 54.95 2122.6 56.95 2144.3 56.95 2144.9 46.95 2143 46.95
Q 2142.15 51.1 2140.75 53 2139.15 54.85 2136.2 54.85
L 2128.3 54.85 2144.45 32.85 2144.45 31.1 2124 31.1 2123.5 40.4 Z"/>
</g>

<g id="Layer0_1_FILL">
<path fill="#CE2620" stroke="none" d="
M 1880.5 18.45
L 1880.5 16.3 1866.3 16.3 1866.3 18.3
Q 1872.25 18.3 1872.25 25.2
L 1872.25 48.15 1847.8 16.3 1838 16.3 1838 18.45 1839.8 18.45
Q 1841.6 18.45 1842.55 19.15 1843.15 19.85 1844.25 21.05
L 1844.25 48.45
Q 1844.25 51.3 1842.55 53.15 1840.85 54.9 1838 54.9
L 1838 57.05 1853.55 57.05 1853.55 54.9
Q 1846.7 54.9 1846.7 48.15
L 1846.7 23.75 1872 57.05 1874.55 57.05 1874.55 24.6
Q 1874.55 23.15 1875 22 1875.4 20.9 1876.1 20.2 1877.5 18.45 1880 18.45
L 1880.5 18.45
M 1907.1 44.15
Q 1907.1 38 1903.5 34.15 1900.1 30.3 1894.95 30.3 1892.3 30.3 1890.15 31.45 1888 32.25 1886.25 34.3 1882.65 38.2 1882.65 44.15 1882.65 50.15 1886.25 53.85 1889.55 57.75 1894.8 57.75 1899.95 57.75 1903.5 53.85 1907.1 50.15 1907.1 44.15
M 1887.8 43.7
Q 1887.8 38.3 1889.7 35.35 1890.65 33.9 1891.8 33.2 1893.25 32.45 1894.95 32.45 1898.25 32.45 1900.25 35.35 1901.95 38.2 1901.95 43.7 1901.95 49.55 1900.25 52.75 1898.4 55.75 1894.95 55.75 1891.35 55.75 1889.55 52.75 1887.8 49.75 1887.8 43.7
M 1921.65 33
L 1921.65 31.15 1909 31.15 1909 33
Q 1910.55 33 1911.4 33.55 1912.25 34.05 1912.8 35.35
L 1922.95 57.75 1924.4 57.75 1933.95 35.85
Q 1934.55 34.6 1935.5 33.9 1936.35 33.3 1937.95 33
L 1937.95 31.15 1927.25 31.15 1927.25 33
Q 1929.25 33.3 1930.25 33.9 1931.4 34.6 1931.4 35.6
L 1924.95 51 1917.95 35.85 1917.8 34.75
Q 1917.8 33.7 1918.65 33.45 1919.65 33 1921.65 33
M 1944.65 48.15
L 1944.55 44.3 1962.95 44.3
Q 1962.95 37.85 1959.7 34.15 1956.5 30.3 1951.35 30.3 1946.1 30.3 1942.65 34.3 1939.4 38.3 1939.4 44.45 1939.4 50.3 1942.8 54 1946.35 57.75 1951.5 57.75 1959.1 57.75 1963.05 50
L 1961.35 49.15
Q 1958.05 55.3 1952.65 55.3 1947.9 55.3 1945.65 51 1945.05 49.9 1944.65 48.15
M 1946.35 34.75
Q 1948.35 32.15 1951.35 32.15 1953.95 32.15 1955.9 34.3 1957.65 36.45 1957.65 39.4 1957.65 42.3 1955.65 42.3
L 1944.55 42.3
Q 1944.55 37.45 1946.35 34.75 Z"/>
</g>

<g id="Layer0_2_FILL">
<path fill="#CE2620" stroke="none" d="
M 1685.8 45.5
Q 1687.2 41.65 1687.2 37.1 1687.2 32.35 1685.8 28.55 1684.55 24.8 1681.8 21.65 1676.2 15.8 1668.1 15.8 1660.55 15.8 1654.95 21.85 1649.5 27.8 1649.5 36.9 1649.5 46.2 1654.95 52.2 1660.35 58.25 1668.25 58.25 1676.2 58.25 1681.8 52.2 1684.55 49.2 1685.8 45.5
M 1662.5 19.7
Q 1665.25 17.95 1668.55 17.95 1680.4 17.95 1680.4 37.25 1680.4 41.9 1679.55 45.35 1678.8 48.95 1677.25 51.35 1674.1 56.1 1668.25 56.1 1656.4 56.1 1656.4 36.8 1656.4 32.95 1657 29.95 1657.35 26.75 1658.55 24.8 1659.25 23.05 1660.25 21.85 1661.25 20.55 1662.5 19.7
M 1694.35 17.1
Q 1693.4 18.05 1693.4 19.35 1693.4 20.55 1694.25 21.5 1695.05 22.35 1696.5 22.35 1697.8 22.35 1698.65 21.5 1699.5 20.55 1699.5 19.35 1699.5 17.95 1698.65 17.1 1697.65 16.25 1696.35 16.25 1695.2 16.25 1694.35 17.1
M 1704.5 57.4
L 1704.5 55.25 1701.5 55.25
Q 1699.5 55.25 1699.5 53.35
L 1699.5 31.05 1689.2 31.5 1689.2 33.65 1691.35 33.65
Q 1694.95 33.65 1694.95 36.65
L 1694.95 52.9
Q 1694.95 55.25 1692.55 55.25
L 1689.8 55.25 1689.8 57.4 1704.5 57.4
M 1714.95 21.1
L 1713.1 21.1
Q 1713.1 30.95 1705.95 32.25
L 1705.95 34.05 1710.5 34.05 1710.5 51.35
Q 1710.5 54.35 1712.25 56.1 1714.05 57.8 1717.25 57.8 1720.8 57.8 1723.1 55.25 1725.25 52.65 1725.25 47.65
L 1723.35 47.65
Q 1723.35 51.2 1722.05 53.1 1720.8 55.05 1718.8 55.05 1716.9 55.05 1715.95 53.95 1714.95 52.65 1714.95 50.5
L 1714.95 34.05 1723.35 34.05 1723.35 31.5 1714.95 31.5 1714.95 21.1
M 1751.5 44.5
Q 1751.5 38.35 1747.9 34.5 1744.45 30.65 1739.35 30.65 1736.65 30.65 1734.55 31.8 1732.4 32.6 1730.65 34.65 1727.05 38.55 1727.05 44.5 1727.05 50.5 1730.65 54.2 1734.05 58.1 1739.2 58.1 1744.35 58.1 1747.9 54.2 1751.5 50.5 1751.5 44.5
M 1744.65 35.7
Q 1746.35 38.55 1746.35 44.05 1746.35 49.9 1744.65 53.1 1742.8 56.1 1739.35 56.1 1735.75 56.1 1734.05 53.1 1732.2 50.1 1732.2 44.05 1732.2 38.65 1734.05 35.7 1735.05 34.25 1736.2 33.55 1737.65 32.8 1739.35 32.8 1742.65 32.8 1744.65 35.7 Z"/>
</g>

<g id="Layer0_3_FILL">
<path fill="#CE2620" stroke="none" d="
M 1467.45 16.9
Q 1465.15 15.85 1462.3 15.85 1457.05 15.85 1453.6 19.3 1450.35 22.75 1450.35 28 1450.35 32.3 1452.15 34.55 1453.95 36.7 1458.2 38.25 1461 39.3 1467.9 40.85 1471.15 41.6 1473.15 43.4 1475.05 45.3 1475.05 48 1475.05 51.4 1472.45 53.65 1469.9 56.15 1465.75 56.15 1460.6 56.15 1456.8 52.25 1452.75 48.4 1451.6 42.1
L 1449.65 42.1 1449.65 57.85 1451.6 57.85 1454.65 54.1
Q 1459.3 58.15 1465.65 58.15 1471.6 58.15 1475.3 54.6 1478.9 50.85 1478.9 45.4 1478.9 42.55 1477.7 40.3 1476.5 38.15 1474 36.55 1471.15 34.8 1464.45 33.25 1457.75 31.85 1456.05 30.25 1453.95 28.6 1453.95 25.4 1453.95 22.25 1456.2 20.15 1458.5 18 1462.2 18 1471.6 18 1474.9 31.1
L 1476.6 31.1 1476.5 16.3 1474.45 16.3 1472.05 19.75
Q 1469.6 17.85 1467.45 16.9
M 1504.45 44.7
Q 1504.45 38.25 1501.2 34.55 1498 30.7 1492.85 30.7 1487.6 30.7 1484.15 34.7 1480.75 38.7 1480.75 44.85 1480.75 50.7 1484.35 54.4 1487.75 58.15 1493.05 58.15 1500.6 58.15 1504.65 50.4
L 1502.75 49.55
Q 1499.6 55.7 1494.15 55.7 1489.3 55.7 1487.15 51.4 1486.6 50.3 1486.15 48.55
L 1486.05 44.7 1504.45 44.7
M 1486.05 42.7
Q 1486.05 37.85 1487.85 35.15 1489.85 32.55 1492.85 32.55 1495.45 32.55 1497.5 34.7 1499.15 36.85 1499.15 39.8 1499.15 42.7 1497.15 42.7
L 1486.05 42.7
M 1515.6 21.15
L 1513.75 21.15
Q 1513.75 31 1506.45 32.3
L 1506.45 34.1 1511 34.1 1511 51.4
Q 1511 54.4 1512.9 56.15 1514.55 57.85 1517.75 57.85 1521.45 57.85 1523.6 55.3 1525.75 52.7 1525.75 47.7
L 1523.85 47.7
Q 1523.85 51.25 1522.55 53.15 1521.45 55.1 1519.3 55.1 1517.55 55.1 1516.6 54 1515.6 52.7 1515.6 50.55
L 1515.6 34.1 1523.85 34.1 1523.85 31.55 1515.6 31.55 1515.6 21.15
M 1548 34.55
Q 1544.85 30.7 1539.75 30.7 1534.25 30.7 1531 34.7 1527.55 38.7 1527.55 44.85 1527.55 50.7 1531.15 54.4 1534.6 58.15 1539.75 58.15 1547.25 58.15 1551.4 50.4
L 1549.6 49.55
Q 1546.3 55.7 1540.9 55.7 1536.15 55.7 1533.9 51.4 1533.3 50.3 1533.05 48.55
L 1532.7 44.7 1551.3 44.7
Q 1551.3 38.25 1548 34.55
M 1539.75 32.55
Q 1542.35 32.55 1544.15 34.7 1546.05 36.85 1546.05 39.8 1546.05 42.7 1544 42.7
L 1532.7 42.7
Q 1532.7 37.85 1534.7 35.15 1536.6 32.55 1539.75 32.55 Z"/>
</g>

<g id="Layer0_4_FILL">
<path fill="#CE2620" stroke="none" d="
M 1280.15 16.3
L 1278.15 16.3 1275.6 19.75
Q 1273.35 17.85 1271.05 16.9 1268.7 15.85 1265.85 15.85 1260.6 15.85 1257.35 19.3 1253.9 22.75 1253.9 28 1253.9 32.3 1255.7 34.55 1257.5 36.7 1261.75 38.25 1264.65 39.3 1271.45 40.85 1274.9 41.6 1276.7 43.4 1278.75 45.3 1278.75 48 1278.75 51.4 1276 53.65 1273.45 56.15 1269.45 56.15 1264.3 56.15 1260.35 52.25 1256.3 48.4 1255.2 42.1
L 1253.2 42.1 1253.2 57.85 1255.2 57.85 1258.3 54.1
Q 1263 58.15 1269.2 58.15 1275.15 58.15 1278.85 54.6 1282.45 50.85 1282.45 45.4 1282.45 42.55 1281.45 40.3 1280.15 38.15 1277.75 36.55 1274.9 34.8 1268 33.25 1261.3 31.85 1259.6 30.25 1257.5 28.6 1257.5 25.4 1257.5 22.25 1259.9 20.15 1262.15 18 1265.85 18 1275.15 18 1278.45 31.1
L 1280.3 31.1 1280.15 16.3
M 1310.15 33.7
L 1312.25 33.7
Q 1315.85 33.7 1315.85 36.7
L 1315.85 52.95
Q 1315.85 55.3 1313.45 55.3
L 1310.7 55.3 1310.7 57.45 1325.25 57.45 1325.25 55.3 1322.4 55.3
Q 1320.45 55.3 1320.45 53.4
L 1320.45 31.1 1310.15 31.55 1310.15 33.7
M 1304.85 34.55
Q 1301.75 30.7 1296.5 30.7 1291.15 30.7 1287.9 34.7 1284.45 38.7 1284.45 44.85 1284.45 50.7 1287.9 54.4 1291.45 58.15 1296.6 58.15 1304.15 58.15 1308.2 50.4
L 1306.4 49.55
Q 1303.15 55.7 1297.7 55.7 1293.05 55.7 1290.75 51.4 1290.15 50.3 1289.9 48.55
L 1289.6 44.7 1308.2 44.7
Q 1308.2 38.25 1304.85 34.55
M 1296.5 32.55
Q 1299.15 32.55 1301.05 34.7 1302.85 36.85 1302.85 39.8 1302.85 42.7 1300.7 42.7
L 1289.6 42.7
Q 1289.6 37.85 1291.6 35.15 1293.4 32.55 1296.5 32.55
M 1319.4 17.15
Q 1318.6 16.3 1317.3 16.3 1316.15 16.3 1315.15 17.15 1314.15 18.1 1314.15 19.4 1314.15 20.6 1315.15 21.55 1316.05 22.4 1317.3 22.4 1318.7 22.4 1319.4 21.55 1320.45 20.6 1320.45 19.4 1320.45 18 1319.4 17.15
M 1346 45.3
Q 1344.3 43.25 1341.6 42.8 1330.4 40.85 1330.4 37.55 1330.4 35.75 1331.85 34.45 1333.45 33.15 1336 33.15 1339.3 33.15 1341.25 35 1343.15 36.7 1344.3 40.4
L 1346.15 40.4 1345.55 31.3 1344.3 31.3 1342.45 33.25
Q 1339.85 31.1 1336.3 31.1 1332.3 31.1 1330 33.6 1327.6 36 1327.6 39.3 1327.6 41.7 1329.15 43.55 1330.75 45.4 1333.45 46
L 1340.4 47.55
Q 1344.6 48.25 1344.6 51.5 1344.6 53.55 1342.9 54.85 1341.15 56.15 1338.25 56.15 1334.9 56.15 1332.75 54.1 1330.6 52.1 1329 47.7
L 1327.15 47.7 1327.75 57.95 1329.15 57.95 1331.1 55.55
Q 1332.9 57 1334.45 57.55 1336.15 58.15 1338.25 58.15 1342.45 58.15 1345.15 55.8 1347.85 53.55 1347.85 49.95 1347.85 47.3 1346 45.3 Z"/>
</g>

<g id="Layer0_5_FILL">
<path fill="#CE2620" stroke="none" d="
M 1069.3 31.5
L 1069.3 33.65 1071.4 33.65
Q 1074.95 33.65 1074.95 36.65
L 1074.95 52.9
Q 1074.95 55.25 1072.55 55.25
L 1069.85 55.25 1069.85 57.4 1084.4 57.4 1084.4 55.25 1081.55 55.25
Q 1079.6 55.25 1079.6 53.35
L 1079.6 31.05 1069.3 31.5
M 1061.95 19.8
Q 1059.3 17.8 1057.05 16.85 1054.45 15.8 1051.7 15.8 1044.05 15.8 1038.7 22.2 1033.45 28.55 1033.45 37.95 1033.45 46.8 1038.9 52.5 1044.15 58.25 1052.15 58.25 1058.6 58.25 1062.55 54.2 1066.7 50.35 1067.45 43.2
L 1065.55 43.2
Q 1063.6 55.75 1052.75 55.75 1046.9 55.75 1043.6 51.35 1040.45 46.8 1040.45 37.8 1040.45 17.95 1052.05 17.95 1056.45 17.95 1059.55 21.5 1062.7 25.1 1064.55 32.35
L 1066.45 32.35 1065.75 15.8 1064 15.8 1061.95 19.8
M 1078.55 17.1
Q 1077.7 16.25 1076.25 16.25 1075.3 16.25 1074.25 17.1 1073.3 18.05 1073.3 19.35 1073.3 20.55 1074.15 21.5 1075.15 22.35 1076.4 22.35 1077.85 22.35 1078.55 21.5 1079.6 20.55 1079.6 19.35 1079.6 17.95 1078.55 17.1
M 1113.15 40.25
Q 1113.15 35.95 1111 33.55 1108.85 31.05 1105 31.05 1098.95 31.05 1095.6 36.65
L 1094.85 31.05 1086.3 31.5 1086.3 33.35 1087.6 33.35
Q 1089.25 33.35 1090.25 34.25 1090.95 34.95 1090.95 36.65
L 1090.95 53.25
Q 1090.95 55.25 1088.3 55.25
L 1086.4 55.25 1086.4 57.4 1100.15 57.4 1100.15 55.25 1098.45 55.25
Q 1096.9 55.25 1096.15 54.8 1095.6 54.2 1095.6 52.65
L 1095.6 43.1
Q 1095.6 39.05 1097.7 36.5 1099.85 34.05 1102.75 34.05 1108.6 34.05 1108.6 41.9
L 1108.6 52.9
Q 1108.6 55.25 1105.25 55.25
L 1104.15 55.25 1104.15 57.4 1117.7 57.4 1117.7 55.25 1115.85 55.25
Q 1114.3 55.25 1113.7 54.65 1113.15 54.05 1113.15 52.65
L 1113.15 40.25
M 1134.95 33.35
Q 1136.15 34.25 1136.15 34.95
L 1135.95 35.2 1135.25 36.4
Q 1134.7 37.25 1134.7 38.2 1134.7 39.5 1135.55 40.35 1136.4 41.05 1137.55 41.05 1138.8 41.05 1139.85 40.1 1140.7 39.05 1140.7 37.5 1140.7 34.95 1138.4 32.8 1135.7 30.65 1132 30.65 1129.25 30.65 1126.95 31.8 1124.7 32.8 1122.8 34.65 1119.45 38.65 1119.45 45.1 1119.45 50.95 1122.8 54.65 1126.15 58.1 1131.5 58.1 1134.95 58.1 1137.35 56.1 1139.85 53.95 1141.15 50.25
L 1139.25 49.65
Q 1137 55.65 1132.25 55.65 1128.65 55.65 1126.7 52.65 1124.55 49.8 1124.55 44.65 1124.55 38.95 1126.5 35.8 1128.4 32.8 1132.1 32.8 1133.85 32.8 1134.95 33.35
M 1150.55 31.8
Q 1148.4 32.6 1146.65 34.65 1143.3 38.55 1143.3 44.5 1143.3 50.5 1146.65 54.2 1150.1 58.1 1155.25 58.1 1160.4 58.1 1164.1 54.2 1167.55 50.5 1167.55 44.5 1167.55 38.35 1164.1 34.5 1160.5 30.65 1155.4 30.65 1152.7 30.65 1150.55 31.8
M 1150.25 35.7
Q 1151.1 34.25 1152.4 33.55 1153.7 32.8 1155.4 32.8 1158.8 32.8 1160.7 35.7 1162.55 38.55 1162.55 44.05 1162.55 49.9 1160.7 53.1 1158.8 56.1 1155.4 56.1 1151.8 56.1 1150.1 53.1 1148.25 50.1 1148.25 44.05 1148.25 38.65 1150.25 35.7 Z"/>
</g>

<g id="Layer0_6_FILL">
<path fill="#CE2620" stroke="none" d="
M 847.05 16.6
Q 841.6 10.65 833.6 10.65 825.6 10.65 820.2 16.8 817.5 19.65 816.05 23.35 814.75 27.05 814.75 31.5 814.75 40.9 820 47.05 825.45 53.2 833.6 53.2
L 839.2 52.15
Q 839.7 57.9 841.35 60.6 842.9 63.35 846.15 63.35 849.45 63.35 851.3 60.75 853.05 58.35 853.05 53.6
L 851.45 53.6
Q 851.45 56.05 850.75 57.35 850.05 58.6 848.85 58.6 847.05 58.6 845.9 55.75
L 843.85 49.75
Q 852.3 42.75 852.3 31.95 852.3 22.8 847.05 16.6
M 833.6 12.75
Q 836.35 12.75 838.6 14.05 840.9 15.2 842.45 17.5 845.45 22.35 845.45 31.6 845.45 36.15 844.9 39.35 844.3 42.75 842.75 45.8 841 41.5 839.05 39.5 836.7 37.35 833.35 37.35 829.65 37.35 827.5 39.5 825.35 41.65 825.35 45.35
L 825.45 47.05
Q 823.2 43.45 822.3 39.95 821.55 36.35 821.55 31.6 821.55 22.35 824.65 17.5 826.2 15.2 828.35 14.05 830.6 12.75 833.6 12.75
M 827.75 47.75
Q 827.15 46.65 827.15 45.35 827.15 42.6 828.7 41.05 830.5 39.35 833.15 39.35 836.35 39.35 837.9 41.75 839.2 44.35 839.2 49.5 837.9 50.2 836.35 50.8 834.9 51.2 833.45 51.2
L 831.45 50.95 829.3 50.1
Q 828.2 49.05 827.75 47.75
M 854 26.5
L 854 28.5
Q 856.3 28.5 857.45 29.1 858.75 29.8 858.75 31.35
L 858.75 42.5
Q 858.75 47.5 860.9 50.1 863.05 52.75 866.9 52.75 869.3 52.75 871.55 51.2 874.05 49.9 876.3 47.2
L 876.9 52.15 885.6 52.05 885.6 50.1 883.85 50.1
Q 880.7 50.1 880.7 47.2
L 880.7 26.05 871.75 26.5 871.75 28.5
Q 874.05 28.5 875.15 29.1 876.3 29.6 876.3 31.35
L 876.3 40.9
Q 876.3 44.6 874.15 47.2 871.9 49.75 868.9 49.75 866.3 49.75 864.75 47.95 863.15 46.2 863.15 43.05
L 863.15 26.05 854 26.5
M 904.85 32.9
L 904.85 36.75
Q 900.85 37.2 897.7 38.05 894.55 38.9 892.3 40.35 887.75 43.05 887.75 46.9 887.75 49.75 889.9 51.3 892.05 53.05 895.75 53.05 898.85 53.05 901 51.9 902.7 50.95 905.15 48.45 906.85 53.05 910.7 53.05 913 53.05 914.95 50.95
L 913.85 49.5 912.85 50.1 911.7 50.2
Q 909.6 50.2 909.6 46.75
L 909.6 32.45
Q 909.6 29.6 907 27.65 904.45 25.75 900.15 25.75 895.4 25.75 892.15 27.9 889 30.05 889 33.05 889 34.6 889.9 35.45 890.85 36.15 892.3 36.15 895.15 36.15 895.15 33.5 895.15 32.9 894.55 32.1
L 893.6 30.2
Q 893.6 29.5 895.3 28.65 896.85 27.65 899 27.65 901.6 27.65 903.15 29.2 904.85 30.65 904.85 32.9
M 892.9 46.3
Q 892.9 43.05 895.75 41.2 897.15 40.35 899.45 39.6 901.7 38.9 904.85 38.5
L 904.85 42.2
Q 904.85 45.9 902.55 48.45 900.15 50.95 896.95 50.95 895.15 50.95 894 49.65 892.9 48.45 892.9 46.3
M 933.95 29.1
L 933.95 26.5 925.7 26.5 925.7 15.9 923.8 15.9
Q 923.8 25.9 916.55 27.05
L 916.55 29.1 921.15 29.1 921.15 46.3
Q 921.15 49.35 922.95 51.05 924.7 52.75 927.85 52.75 931.55 52.75 933.7 50.1 935.85 47.5 935.85 42.6
L 933.95 42.6
Q 933.95 46.2 932.7 48.05 931.55 50.1 929.4 50.1 927.7 50.1 926.65 48.9 925.7 47.6 925.7 45.45
L 925.7 29.1 933.95 29.1
M 950.4 28.65
Q 948.4 31.25 946.8 36.5
L 946.8 26.05 937.55 26.5 937.55 28.5 939.85 28.5
Q 943 28.5 943 32.1
L 943 48.45
Q 943 50.1 940.25 50.1
L 937.7 50.1 937.7 52.15 953.7 52.15 953.7 50.1 950.4 50.1
Q 947.55 50.1 947.55 48.2
L 947.55 42.75
Q 947.55 37.6 950 33.05 952.4 28.5 954.7 28.5 954.95 28.5 955.15 28.5 955.15 28.65 955.25 28.75 955.15 29.2 954.8 29.8 954.55 30.5 954.55 31.35 954.55 32.6 955.25 33.5 956 34.5 957.3 34.5 958.5 34.5 959.45 33.5 960.15 32.45 960.15 30.9 960.15 28.65 958.85 27.35 957.7 26.05 955.65 26.05 952.4 26.05 950.4 28.65
M 982.85 49.15
Q 986.3 45.45 986.3 39.35 986.3 33.3 982.85 29.5 979.25 25.65 974.1 25.65 971.4 25.65 969.25 26.6 967.1 27.65 965.4 29.6 961.95 33.5 961.95 39.35 961.95 45.35 965.4 49.15 968.85 53.05 974 53.05 979.25 53.05 982.85 49.15
M 981.25 38.9
Q 981.25 44.9 979.4 47.95 977.7 51.05 974.1 51.05 970.7 51.05 968.85 47.95 966.95 45.1 966.95 39.05 966.95 33.5 969 30.65 969.85 29.2 971.15 28.5 972.35 27.65 974.1 27.65 977.55 27.65 979.4 30.65 981.25 33.5 981.25 38.9 Z"/>
</g>

<g id="Layer0_7_FILL">
<path fill="#CE2620" stroke="none" d="
M 667.05 20.55
Q 667.05 19.15 667.65 18.55 668.35 18.15 669.8 18.15 677.8 18.15 679.45 31.85
L 681.5 31.85 680.65 16.45 647.8 16.45 646.75 31.85 648.8 31.85
Q 649.75 25 652.25 21.6 654.75 18.15 658.45 18.15 661.2 18.15 661.2 20.3
L 661.2 53.25
Q 661.2 54.9 659.3 54.9
L 654.75 54.9 654.75 56.95 673.5 56.95 673.5 54.9 669.45 54.9
Q 668.2 54.9 667.65 54.45 667.05 53.95 667.05 53
L 667.05 20.55
M 700.05 34.6
Q 699.75 35.3 699.75 36.15 699.75 37.4 700.45 38.3 701.2 39.3 702.5 39.3 703.8 39.3 704.6 38.3 705.35 37.25 705.35 35.7 705.35 33.45 704.05 32.15 702.95 30.85 700.8 30.85 697.6 30.85 695.65 33.45 693.65 36.05 692.1 41.3
L 692.1 30.85 682.8 31.3 682.8 33.3 685.05 33.3
Q 688.2 33.3 688.2 36.9
L 688.2 53.25
Q 688.2 54.9 685.5 54.9
L 682.9 54.9 682.9 56.95 698.9 56.95 698.9 54.9 695.65 54.9
Q 692.8 54.9 692.8 53
L 692.8 47.55
Q 692.8 42.4 695.2 37.85 697.6 33.3 699.9 33.3 700.2 33.3 700.35 33.3 700.35 33.45 700.45 33.55 700.35 34 700.05 34.6
M 722.65 18.05
L 719.2 18.05 713.9 26 717.6 26 720.85 20.7 721.05 20.7 724.2 26 728 26 722.65 18.05
M 732.3 42
Q 732.3 40 731.9 37.85 731.35 35.6 730.05 33.7 728.6 31.55 726.45 30.45 725.5 29.85 724.05 29.6 722.75 29.15 721.2 29.15 718.2 29.15 715.75 30.3 713.35 31.4 711.65 33.45 710 35.45 709.15 38.1 708.35 40.85 708.35 43.85 708.35 46.8 709.15 49.55 710 52 711.9 53.85 713.6 55.75 716.05 56.55 718.45 57.55 721.8 57.55 726 57.55 730.75 56
L 729.9 52.3
Q 726 53.85 722.3 53.85 720.5 53.85 718.9 53.25 717.05 52.75 715.75 51.55 714.65 50.4 713.8 48.6 713.05 46.8 713.05 44.3
L 732.2 44.3 732.3 42
M 720.6 32.7
Q 722.65 32.7 724.05 33.55 725.5 34.3 726.2 35.6 727.05 36.75 727.3 38.3 727.65 39.4 727.65 40.7
L 713.2 40.7
Q 713.2 39.4 713.6 38.1 714.2 36.55 715.15 35.45 716.2 34.15 717.5 33.55 718.9 32.7 720.6 32.7
M 743.15 34
Q 744.45 32.85 746.6 32.85 749.15 32.85 752.2 34.6
L 753.3 30.85
Q 752.2 30.1 750.6 29.75 748.65 29.15 746.75 29.15 744.6 29.15 742.8 29.85 741 30.3 739.9 31.4 738.6 32.6 737.9 34 737.3 35.6 737.3 37.15 737.3 38.3 737.75 39.4 738.15 40.6 739 41.55 739.9 42.6 741.35 43.45 742.6 44.15 744.6 44.85 747.35 45.85 748.45 47 749.6 48.1 749.6 50 749.6 51.7 748.3 52.75 746.85 53.85 744.15 53.85 742.6 53.85 740.65 53.25 738.9 52.75 737.75 52
L 736.6 55.85
Q 737.9 56.55 739.9 56.95 742.05 57.55 744.15 57.55 746.6 57.55 748.45 56.95 750.45 56.45 751.75 55.4 753.05 54.3 753.75 52.75 754.3 51.1 754.3 49.55 754.3 48 753.9 46.7 753.45 45.45 752.6 44.4 751.75 43.55 750.3 42.75
L 747.35 41.3
Q 744.35 40.15 743.3 39.3 742.05 38.3 742.05 36.75 742.05 35 743.15 34 Z"/>
</g>

<g id="Layer0_8_FILL">
<path fill="#CE2620" stroke="none" d="
M 475.45 17.45
Q 472.9 16.6 469.2 16.6
L 448.05 16.6 448.05 18.7 452.2 18.7
Q 454.65 18.7 454.65 20.45
L 454.65 53.15
Q 454.65 55.05 451.95 55.05
L 448.05 55.05 448.05 57.1 471.35 57
Q 478.65 56.15 482.6 50.75 484.75 48.15 485.9 44.55 486.9 41.1 486.9 36.9 486.9 31.7 485.35 27.75 483.8 23.55 480.6 20.85 478.05 18.3 475.45 17.45
M 467.45 18.7
Q 474.05 18.7 477 23.2 480.2 27.85 480.2 37.4 480.2 46.6 477 50.85 473.9 55.05 466.9 55.05
L 463.35 55.05
Q 460.5 55.05 460.5 53.15
L 460.5 20.7
Q 460.5 18.7 462.9 18.7
L 467.45 18.7
M 525.55 31
L 515.3 31.45 515.3 33.6 517.45 33.6
Q 521.15 33.6 521.15 36.55
L 521.15 52.9
Q 521.15 55.05 518.6 55.05
L 515.9 55.05 515.9 57.1 530.6 57.1 530.6 55.05 527.6 55.05
Q 525.55 55.05 525.55 53.3
L 525.55 31
M 492.6 34.55
Q 489.05 38.45 489.05 44.3 489.05 50.3 492.6 54.1 496.05 58 501.2 58 506.35 58 510.05 54.1 513.5 50.4 513.5 44.3 513.5 38.25 510.05 34.45 506.45 30.6 501.35 30.6 498.6 30.6 496.45 31.55 494.3 32.6 492.6 34.55
M 494.2 44
Q 494.2 38.45 496.05 35.6 497.05 34.15 498.2 33.45 499.65 32.6 501.35 32.6 504.6 32.6 506.6 35.6 508.35 38.45 508.35 43.85 508.35 49.85 506.6 52.9 504.75 56 501.35 56 497.75 56 496.05 52.9 494.2 50.05 494.2 44
M 525.55 19.3
Q 525.55 17.85 524.75 17 523.9 16.05 522.45 16.05 521.3 16.05 520.45 17 519.45 18.05 519.45 19.3 519.45 20.45 520.3 21.45 521.15 22.25 522.6 22.25 523.9 22.25 524.75 21.45 525.55 20.45 525.55 19.3
M 537.15 34.15
Q 538.55 33 541.3 33 544.4 33 546.45 34.75 548.45 36.55 549.55 40.3
L 551.3 40.3 550.75 31.2 549.55 31.2 547.75 33.15
Q 545 31 541.55 31 537.6 31 535.2 33.45 532.85 35.85 532.85 39 532.85 41.6 534.5 43.25 536.05 45.3 538.55 45.85
L 545.7 47.45
Q 549.75 48.15 549.75 51.25 549.75 53.4 548 54.7 546.45 56 543.6 56 540 56 537.85 54 535.7 52 534.15 47.55
L 532.45 47.55 533.05 57.7 534.5 57.7 536.3 55.4
Q 538.2 56.85 539.75 57.45 541.45 58 543.6 58 547.6 58 550.25 55.55 553 53.4 553 49.7 553 46.95 551.2 45.15 549.55 43.15 546.9 42.75 535.7 40.75 535.7 37.4 535.7 35.6 537.15 34.15 Z"/>
</g>

<g id="Layer0_9_FILL">
<path fill="#CE2620" stroke="none" d="
M 298.7 18.35
L 298.7 16.25 283.45 16.25 283.45 18.35 285 18.35
Q 287.4 18.35 288.45 20.1 289.55 21.9 289.55 25.35
L 289.55 44.2
Q 289.55 46.6 288.85 48.65 288.15 50.5 286.55 51.95 283.7 54.7 278.3 54.7 275.6 54.7 273.45 54.1 271.6 53.4 270.3 51.95 267.7 49.2 267.7 43.35
L 267.7 20.25
Q 267.7 18.35 270.45 18.35
L 274.15 18.35 274.15 16.25 255.3 16.25 255.3 18.35 259.35 18.35
Q 261.85 18.35 261.85 20.25
L 261.85 44.95
Q 261.85 57.8 277.25 57.8 284.6 57.8 288.6 54.1 292.6 50.4 292.6 43.85
L 292.6 23.7
Q 292.6 18.35 297.55 18.35
L 298.7 18.35
M 334 30.65
Q 328.7 30.65 324.85 36.55 323.3 30.65 317.85 30.65 315.15 30.65 313.15 31.95 311.15 33.35 309.1 36.1
L 308.25 30.65 300.85 31.1 300.85 32.95
Q 303 33.25 303.7 33.8 304.55 34.4 304.55 35.95
L 304.55 52.8
Q 304.55 54.7 302.3 54.7
L 300.3 54.7 300.3 56.75 313.3 56.75 313.3 54.7 312 54.7
Q 310.4 54.7 309.7 54.25 309.1 53.75 309.1 52.55
L 309.1 42.4
Q 309.1 38.65 311 36.2 312.9 33.8 315.9 33.8 320.7 33.8 320.7 40.95
L 320.7 52.8
Q 320.7 54.7 318 54.7
L 316.4 54.7 316.4 56.75 329.6 56.75 329.6 54.7 327.7 54.7
Q 325.3 54.7 325.3 52.55
L 325.3 41.5
Q 325.3 38.65 327.1 36.2 328.15 34.9 329.15 34.4 330.45 33.8 331.85 33.8 334.15 33.8 335.55 35.5 336.3 36.2 336.7 37.4 337 38.35 337 39.8
L 337 52.55
Q 337 53.65 336.15 54.25 335.45 54.7 334 54.7
L 332.7 54.7 332.7 56.75 345.7 56.75 345.7 54.7 344.3 54.7
Q 341.55 54.7 341.55 52.55
L 341.55 39.8
Q 341.55 35.5 339.55 33.1 337.6 30.65 334 30.65 Z"/>
</g>

<g id="Layer0_10_FILL">
<path fill="#CE2620" stroke="none" d="
M 50.75 30.3
Q 51.6 23.75 54.35 21.15 57.05 18.4 62.45 18.4
L 70.7 18.4 47.3 55 47.3 56.8 76.9 56.8 77.6 41.75 75.6 41.75
Q 74 48.8 71.6 51.55 68.75 54.75 62.7 54.75
L 53.85 54.75 77.15 18.25 77.15 16.3 49.45 16.3 48.75 30.3 50.75 30.3
M 99.7 34
Q 96.6 30.3 91.45 30.3 86.2 30.3 82.75 34.25 79.3 38.15 79.3 44.4 79.3 50.25 82.85 54 86.3 57.7 91.55 57.7 99 57.7 103.15 50
L 101.3 49.15
Q 98 55.25 92.6 55.25 87.85 55.25 85.7 50.95 85.15 49.85 84.75 48.1
L 84.6 44.25 103 44.25
Q 103 37.7 99.7 34
M 91.45 32.1
Q 94.05 32.1 95.85 34.25 97.75 36.4 97.75 39.4 97.75 42.25 95.75 42.25
L 84.6 42.25
Q 84.6 37.45 86.45 34.7 88.3 32.1 91.45 32.1
M 122.7 33.4
Q 122.6 33.85 122.3 34.45 122 35.15 122 36 122 37.25 122.7 38.15 123.4 39.15 124.7 39.15 126 39.15 126.85 38.15 127.6 37.1 127.6 35.55 127.6 33.3 126.4 32 125.2 30.7 123.15 30.7 120 30.7 117.85 33.3 115.9 35.9 114.3 41.15
L 114.3 30.7 105.05 31.15 105.05 33.15 107.3 33.15
Q 110.4 33.15 110.4 36.75
L 110.4 53.1
Q 110.4 54.75 107.7 54.75
L 105.15 54.75 105.15 56.8 121.15 56.8 121.15 54.75 117.85 54.75
Q 115.05 54.75 115.05 52.85
L 115.05 47.4
Q 115.05 42.25 117.45 37.7 119.85 33.15 122.1 33.15 122.45 33.15 122.6 33.15 122.6 33.3 122.7 33.4
M 136.7 31.25
Q 134.6 32.3 132.85 34.25 129.4 38.15 129.4 44 129.4 50 132.85 53.8 136.3 57.7 141.45 57.7 146.7 57.7 150.25 53.8 153.7 50.1 153.7 44 153.7 37.95 150.25 34.15 146.7 30.3 141.55 30.3 138.85 30.3 136.7 31.25
M 136.4 35.3
Q 137.25 33.85 138.55 33.15 139.85 32.3 141.55 32.3 145 32.3 146.8 35.3 148.7 38.15 148.7 43.55 148.7 49.55 146.8 52.6 145.15 55.7 141.55 55.7 138.1 55.7 136.3 52.6 134.4 49.75 134.4 43.7 134.4 38.15 136.4 35.3 Z"/>
</g>
</defs>

<g transform="matrix( 0.5999908447265625, 0, 0, 0.5999908447265625, 0.25,0.2) ">
<use xlink:href="#Layer0_0_FILL"/>
</g>

<g transform="matrix( 0.5999908447265625, 0, 0, 0.5999908447265625, 0.25,0.2) ">
<use xlink:href="#Layer0_1_FILL"/>
</g>

<g transform="matrix( 0.5999908447265625, 0, 0, 0.5999908447265625, 0.25,0.2) ">
<use xlink:href="#Layer0_2_FILL"/>
</g>

<g transform="matrix( 0.5999908447265625, 0, 0, 0.5999908447265625, 0.25,0.2) ">
<use xlink:href="#Layer0_3_FILL"/>
</g>

<g transform="matrix( 0.5999908447265625, 0, 0, 0.5999908447265625, 0.25,0.2) ">
<use xlink:href="#Layer0_4_FILL"/>
</g>

<g transform="matrix( 0.5999908447265625, 0, 0, 0.5999908447265625, 0.25,0.2) ">
<use xlink:href="#Layer0_5_FILL"/>
</g>

<g transform="matrix( 0.5999908447265625, 0, 0, 0.5999908447265625, 0.25,0.2) ">
<use xlink:href="#Layer0_6_FILL"/>
</g>

<g transform="matrix( 0.5999908447265625, 0, 0, 0.5999908447265625, 0.25,0.2) ">
<use xlink:href="#Layer0_7_FILL"/>
</g>

<g transform="matrix( 0.5999908447265625, 0, 0, 0.5999908447265625, 0.25,0.2) ">
<use xlink:href="#Layer0_8_FILL"/>
</g>

<g transform="matrix( 0.5999908447265625, 0, 0, 0.5999908447265625, 0.25,0.2) ">
<use xlink:href="#Layer0_9_FILL"/>
</g>

<g transform="matrix( 0.5999908447265625, 0, 0, 0.5999908447265625, 0.25,0.2) ">
<use xlink:href="#Layer0_10_FILL"/>
</g>
</svg>
