
<svg xmlns="http://www.w3.org/2000/svg" version="1.1" xmlns:xlink="http://www.w3.org/1999/xlink" preserveAspectRatio="none" x="0px" y="0px" width="793px" height="56px" viewBox="0 0 793 56">
<defs>
<g id="Layer0_0_FILL">
<path fill="#7B502C" stroke="none" d="
M 1218.1 16.2
Q 1220.1 16.2 1221.4 17.3 1222.85 18.35 1222.85 20.05
L 1222.85 72.85
Q 1222.85 77.6 1217.15 77.6
L 1207.95 77.6 1207.95 81.85 1248 81.85 1248 77.6 1237.15 77.6
Q 1234.8 77.6 1233.6 76.7 1232.15 75.75 1232.15 74.15
L 1232.15 4.5 1229.4 4.5
Q 1224.55 8.05 1218.7 9.9 1213.7 11.45 1205.8 12.35
L 1205.8 16.2 1218.1 16.2
M 1315.2 43.15
Q 1315.2 24.2 1307.95 13.6 1300.55 2.95 1288.25 2.95 1276.4 2.95 1269.15 13.9 1262 24.75 1262 43.3 1262 61.9 1269.4 72.75 1276.65 83.45 1288.85 83.45 1300.65 83.45 1307.95 72.85 1311.5 67.5 1313.55 60 1315.2 52.6 1315.2 43.15
M 1301.1 16.2
Q 1302.8 20.5 1303.65 27.45 1304.55 34.45 1304.55 44 1304.55 62.3 1300.8 70.85 1296.95 79.45 1288.55 79.45 1279.8 79.45 1276.3 70.75 1274.4 66.45 1273.55 59.6 1272.85 52.6 1272.85 43.05 1272.85 24.2 1276.3 15.6 1279.8 7.05 1288.55 7.05 1297.3 7.05 1301.1 16.2 Z"/>
</g>

<g id="Layer0_1_FILL">
<path fill="#7B502C" stroke="none" d="
M 1155.85 41.85
L 1155.85 46.85
Q 1155.85 62.75 1150.5 71.2 1145.35 79.45 1135.7 79.45 1127.95 79.45 1127.95 75.45 1127.95 74.45 1129 73.35 1130.65 71.7 1130.65 69.45 1130.65 66.55 1128.85 64.9 1126.85 63 1124.25 63 1121.25 63 1119.25 65.35 1117.3 67.5 1117.3 70.75 1117.3 76.3 1122.1 79.9 1126.95 83.45 1135.2 83.45 1149.8 83.45 1158.35 71.9 1166.8 60.35 1166.8 39.7 1166.8 22.75 1159.4 12.9 1151.95 2.95 1139.95 2.95 1134.5 2.95 1130.1 4.9 1125.55 6.9 1121.85 10.75 1114.25 18.6 1114.25 29.6 1114.25 40.3 1120.65 46.75 1126.95 53.05 1136.5 53.05 1148.2 53.05 1155.85 41.85
M 1140.1 7.05
Q 1146.55 7.05 1150.95 12.75 1155.35 18.6 1155.35 28 1155.35 32.3 1154.25 35.9 1153.25 39.35 1151.1 41.85 1146.65 47.2 1140.25 47.2 1136.85 47.2 1134.1 45.9 1131.5 44.6 1129.55 42.2 1125.8 37.3 1125.8 27.75 1125.8 17.9 1129.7 12.5 1133.4 7.05 1140.1 7.05 Z"/>
</g>

<g id="Layer0_2_FILL">
<path fill="#7B502C" stroke="none" d="
M 1043 46.15
Q 1038.8 41.15 1030.25 38.15 1043.7 31 1043.7 20.6 1043.7 13.05 1037.5 8.05 1031.1 2.95 1020.95 2.95 1010.65 2.95 1004 9.05 997.4 15.15 997.4 23.75 997.4 37.05 1012.1 43.45 1002.8 46.75 998.4 51.3 993.95 55.9 993.95 63.2 993.95 72.05 1001.1 77.75 1008.15 83.45 1019.95 83.45 1026.1 83.45 1031.1 81.85 1035.95 80 1039.65 76.6 1047.05 69.55 1047.05 59.05 1047.05 55.2 1046.1 52 1045.1 48.75 1043 46.15
M 1020.7 7.05
Q 1027.95 7.05 1031.8 10.6 1035.85 14.3 1035.85 21.45 1035.85 27.65 1033.25 31.2 1031.3 33.75 1025.95 36.75 1014 32.75 1010.1 30.05 1004.95 26.35 1004.95 19.45 1004.95 16.6 1006 14.3 1006.95 11.9 1009.1 10.35 1013.25 7.05 1020.7 7.05
M 1006.95 75.15
Q 1002.3 70.85 1002.3 62.75 1002.3 56.05 1005.8 51.9 1009 48.15 1016.15 45.05 1026.8 48.75 1030.8 50.9 1039.8 55.45 1039.8 63.3 1039.8 67.15 1038.55 70.15 1037.15 73 1034.4 75.15 1029.15 79.45 1020.4 79.45 1011.5 79.45 1006.95 75.15 Z"/>
</g>

<g id="Layer0_3_FILL">
<path fill="#7B502C" stroke="none" d="
M 918.35 13.2
L 910.7 27.45
Q 901.85 43.75 897 57.35 892.85 69.15 892.85 75.3 892.85 83.45 899 83.45 905 83.45 905.55 73 907 52.85 909.65 43.05 912.4 33.3 917.25 23.15 920.15 16.8 925.85 7.05
L 925.85 4.5 891 4.5
Q 885.15 4.5 879.1 2.95
L 875.15 29.6 879.1 29.6
Q 881.25 19.2 882.45 16.8 884 13.2 888 13.2
L 918.35 13.2 Z"/>
</g>

<g id="Layer0_4_FILL">
<path fill="#7B502C" stroke="none" d="
M 791.1 8.2
Q 792.9 9.3 792.9 10.95
L 792.1 13.35
Q 790.4 16.2 790.4 17.75 790.4 20.35 792.35 22.15 794.2 24.05 797.1 24.05 800.35 24.05 802.35 21.8 804.5 19.65 804.5 16.2 804.5 10.6 799.1 6.75 793.5 2.95 786.1 2.95 772.65 2.95 763.55 15 753.9 27.45 753.9 46.6 753.9 63.2 761.55 73.35 765.25 78.45 770.25 81 775.1 83.45 781.35 83.45 792.65 83.45 799.8 75.85 807.1 68.2 807.1 56.75 807.1 46.85 800.65 40.75 794.35 34.45 785.25 34.45 779.1 34.45 773.95 37.45 769.5 39.9 765.35 45.3
L 765.35 40.75
Q 765.35 25.5 771.2 16.2 776.8 7.05 785.95 7.05 789.1 7.05 791.1 8.2
M 770.65 45.05
Q 772.75 42.45 775.85 41.35 778.6 39.9 782.2 39.9 796.35 39.9 796.35 59.75 796.35 69.45 792.35 74.45 788.35 79.45 781.5 79.45 774.65 79.45 770.65 74.15 766.4 68.7 766.4 59.15 766.4 50.3 770.65 45.05 Z"/>
</g>

<g id="Layer0_5_FILL">
<path fill="#7B502C" stroke="none" d="
M 676.2 11.45
Q 680.95 7.75 680.95 3.8
L 680.7 2.95 674.5 5.2
Q 670.55 6.2 665.55 6.2
L 642.8 2.95 640.65 38.5 638.7 40.75
Q 637.4 42.45 637.4 44.45 637.4 47.45 639.8 47.45 641.95 47.45 643 45.55 643.5 44 643.95 40.75 647.2 38.5 650.55 37.2 653.8 36 657.1 36 665.35 36 669.85 41.35 674.25 46.75 674.25 57 674.25 79.45 656.4 79.45 650.4 79.45 646.25 76.6 642.3 73.85 642.3 70.75 642.3 69.55 643.5 68.6
L 645.8 67.3
Q 648.85 65.85 648.85 62.6 648.85 59.5 646.95 57.35 645.05 55.3 642.3 55.3 639.1 55.3 637.25 57.85 635.4 60.45 635.4 64.9 635.4 72.75 641.35 78.15 647.2 83.45 657.1 83.45 669.5 83.45 677.65 75.85 685.65 68.3 685.65 56.3 685.65 45.45 678.1 38.15 670.55 31 659.85 31 655.65 31 651.85 32.3 648.85 33.15 644.35 35.45
L 646.25 14.05 661.65 16.05
Q 670.25 16.05 676.2 11.45 Z"/>
</g>

<g id="Layer0_6_FILL">
<path fill="#7B502C" stroke="none" d="
M 567.5 60.5
L 567.5 55.8 554.5 55.8 554.5 2.95 550.95 2.95 513.55 55.1 513.55 60.5 545.35 60.5 545.35 71.35
Q 545.35 76.1 539.5 76.1
L 533.85 76.1 533.85 80.4 564.65 80.4 564.65 76.1 560.1 76.1
Q 557.65 76.1 556.05 75.05 554.5 74.05 554.5 72.4
L 554.5 60.5 567.5 60.5
M 518.35 55.8
L 545.35 18.25 545.35 55.8 518.35 55.8 Z"/>
</g>

<g id="Layer0_7_FILL">
<path fill="#7B502C" stroke="none" d="
M 428.85 11.35
Q 432.25 15.65 432.25 24.1 432.25 31.6 428.85 35.3 425.15 39.05 418.15 39.05
L 412.3 39.05
Q 410.75 39.05 409.55 39.6 408.6 40.35 408.6 41.65 408.6 43.9 411.95 43.9
L 419.95 43.2
Q 427.55 43.2 431 47.6 434.4 52.05 434.4 61.45 434.4 71.05 430.4 75.3 426.25 79.6 417.3 79.6 410.55 79.6 406.45 77.2 402.3 74.8 402.3 71.45 402.3 70.5 403.1 69.75
L 407.15 67.05
Q 408.6 65.5 408.6 62.75 408.6 59.75 406.95 57.75 405.25 55.95 402.4 55.95 398.85 55.95 397 58.35 395.15 60.75 395.15 64.75 395.15 73.5 401.45 78.6 407.65 83.6 418.7 83.6 431 83.6 438.4 77.45 445.85 71.2 445.85 61.3 445.85 53.65 441.15 48.2 436.4 42.8 427.45 40.65 435.25 37.6 439 33.35 442.6 29.1 442.6 22.65 442.6 14.05 436.4 8.65 429.95 2.95 419.55 2.95 414.7 2.95 410.85 4.2 406.95 5.5 403.95 7.95 398 12.9 398 19.9 398 23.75 399.7 25.9 401.55 28.05 404.4 28.05 406.95 28.05 408.7 26.6 410.4 25.05 410.4 22.65 410.4 20.9 409.45 19.35
L 407.4 16.65 406 15.25
Q 405.25 14.5 405.25 13.5 405.25 11.35 409.3 9.2 413.15 7.05 418.7 7.05 425.55 7.05 428.85 11.35 Z"/>
</g>

<g id="Layer0_8_FILL">
<path fill="#7B502C" stroke="none" d="
M 324.8 81.95
L 326.45 58.8 322.65 58.8
Q 320.6 67.9 319.15 70.15 317.4 73 312.5 73
L 284.7 73
Q 289.95 66.35 295.45 61.65
L 310.1 49.35
Q 318.1 42.6 321.95 36.5 325.85 30.3 325.85 24.1 325.85 14.8 318.95 8.95 312.15 2.95 301.75 2.95 296.25 2.95 292 4.4 287.45 5.95 284.1 8.95 277.15 14.9 277.15 24.2 277.15 29.1 279.7 32.2 282.15 35.3 285.7 35.3 288.55 35.3 290.55 33.65 292.45 31.75 292.45 28.9 292.45 23.95 286.85 22.2
L 284 20.9
Q 283.15 20.35 283.15 18.75 283.15 14.35 287.8 10.95 292.85 7.35 300.55 7.35 307.25 7.35 310.95 11.35 313 13.35 313.8 16.1 314.65 18.75 314.65 22.2 314.65 27.8 311.8 34.2 308.8 40.65 303.4 46.65
L 295.1 55.8
Q 288.85 62.9 285.4 66.45
L 274.55 78.75 274.55 81.95 324.8 81.95 Z"/>
</g>

<g id="Layer0_9_FILL">
<path fill="#7B502C" stroke="none" d="
M 171.7 14.55
Q 173.75 14.55 175.05 15.65 176.45 16.8 176.45 18.5
L 176.45 71.2
Q 176.45 76.1 170.75 76.1
L 161.55 76.1 161.55 80.4 201.55 80.4 201.55 76.1 190.7 76.1
Q 188.4 76.1 187.2 75.2 185.75 74.2 185.75 72.65
L 185.75 2.95 183 2.95
Q 178.15 6.55 172.3 8.35 167.3 9.8 159.45 10.85
L 159.45 14.55 171.7 14.55 Z"/>
</g>

<g id="Layer0_10_FILL">
<path fill="#7B502C" stroke="none" d="
M 85.35 60
Q 87.2 52.6 87.2 43.2 87.2 24.1 79.8 13.5 72.35 2.95 60.1 2.95 48.25 2.95 41.1 13.95 33.85 24.8 33.85 43.3 33.85 61.9 41.25 72.75 48.65 83.5 60.65 83.5 72.5 83.5 79.8 72.75 83.5 67.3 85.35 60
M 48.25 15.65
Q 51.65 7.05 60.55 7.05 69.05 7.05 72.95 16.2 74.65 20.5 75.5 27.35 76.55 34.35 76.55 43.9 76.55 62.35 72.85 70.9 68.95 79.45 60.55 79.45 51.65 79.45 48.25 70.75 46.35 66.45 45.55 59.65 44.7 52.6 44.7 43.05 44.7 24.2 48.25 15.65 Z"/>
</g>
</defs>

<g transform="matrix( 0.5999908447265625, 0, 0, 0.5999908447265625, 0.2,0.2) ">
<use xlink:href="#Layer0_0_FILL"/>
</g>

<g transform="matrix( 0.5999908447265625, 0, 0, 0.5999908447265625, 0.2,0.2) ">
<use xlink:href="#Layer0_1_FILL"/>
</g>

<g transform="matrix( 0.5999908447265625, 0, 0, 0.5999908447265625, 0.2,0.2) ">
<use xlink:href="#Layer0_2_FILL"/>
</g>

<g transform="matrix( 0.5999908447265625, 0, 0, 0.5999908447265625, 0.2,0.2) ">
<use xlink:href="#Layer0_3_FILL"/>
</g>

<g transform="matrix( 0.5999908447265625, 0, 0, 0.5999908447265625, 0.2,0.2) ">
<use xlink:href="#Layer0_4_FILL"/>
</g>

<g transform="matrix( 0.5999908447265625, 0, 0, 0.5999908447265625, 0.2,0.2) ">
<use xlink:href="#Layer0_5_FILL"/>
</g>

<g transform="matrix( 0.5999908447265625, 0, 0, 0.5999908447265625, 0.2,0.2) ">
<use xlink:href="#Layer0_6_FILL"/>
</g>

<g transform="matrix( 0.5999908447265625, 0, 0, 0.5999908447265625, 0.2,0.2) ">
<use xlink:href="#Layer0_7_FILL"/>
</g>

<g transform="matrix( 0.5999908447265625, 0, 0, 0.5999908447265625, 0.2,0.2) ">
<use xlink:href="#Layer0_8_FILL"/>
</g>

<g transform="matrix( 0.5999908447265625, 0, 0, 0.5999908447265625, 0.2,0.2) ">
<use xlink:href="#Layer0_9_FILL"/>
</g>

<g transform="matrix( 0.5999908447265625, 0, 0, 0.5999908447265625, 0.2,0.2) ">
<use xlink:href="#Layer0_10_FILL"/>
</g>
</svg>
