
<svg xmlns="http://www.w3.org/2000/svg" version="1.1" xmlns:xlink="http://www.w3.org/1999/xlink" preserveAspectRatio="none" x="0px" y="0px" width="528px" height="66px" viewBox="0 0 528 66">
<defs>
<g id="Layer0_0_MEMBER_0_FILL">
<path fill="#7B502C" stroke="none" d="
M 349.65 57.15
L 349.65 59.9 354.15 59.9
Q 355 59.9 356.1 60 356.95 60.15 357.35 60.35 358.3 60.85 358.3 62.5
L 358.3 96.35
Q 358.3 101.75 355.7 104.9 353.15 107.95 348.9 107.95 345.55 107.95 343.05 106.45
L 342.1 105.8
Q 339.45 103.6 339.45 100.85 339.45 98.9 340.8 98.9
L 343.95 99.65
Q 345.65 99.65 346.85 98.2 348.1 96.8 348.1 94.7 348.1 93.6 347.7 92.55 347.35 91.5 346.55 90.8 344.95 89.25 342.55 89.25 339.3 89.25 337.5 91.6 335.55 94.1 335.55 98 335.55 103.5 339.65 107.15
L 340.7 107.95
Q 344.4 110.75 349.85 110.75
L 350.05 110.75
Q 353.25 110.75 356 109.8 359.05 108.9 361.45 106.85 365.8 102.95 365.8 96.75
L 365.8 62.5
Q 365.8 60.45 368.05 60
L 372.8 59.9 372.8 57.15 349.65 57.15
M 412.2 92.35
Q 413.4 94 415.1 95.3
L 416.75 96.35 416.1 96.55
Q 413.4 97.55 411.9 99.1 410.25 100.75 410.25 103.25 410.25 106.65 413.55 108.5 415.2 109.4 417.35 109.8
L 415 110.35
Q 409.2 112.1 409.2 116.2 409.2 119.6 412.7 121.75
L 412.9 121.85
Q 416.15 123.75 421.75 123.9 422.35 124 423.5 124 431.6 124 436.15 120.85 438.3 119.45 439.35 117.55 440.8 115.4 440.8 112.7 440.8 110.5 440 108.9 437.55 104.35 428.45 104.35
L 419.6 104.45
Q 418 104.45 417.05 104.25 416.05 104.2 415.4 103.85 414.55 103.5 414.25 102.5
L 414.15 101.6
Q 414.15 99.6 415.8 98.9 416.7 98.55 418.15 98.3
L 424.95 98.2
Q 429.5 98.2 432.9 95.85
L 434.1 94.8
Q 437.9 91.45 437.9 86.75 437.9 84.45 437.2 83.05
L 435.25 79.8 436.7 78.65 437.9 78.25
Q 438.5 78.25 438.85 79.15
L 438.95 79.35
Q 439.5 80.75 440.3 81.2 440.95 81.75 441.65 81.75 442.65 81.75 443.5 80.9 444.3 80.1 444.3 78.75
L 444.2 77.7
Q 444 76.7 443.15 75.85 442 74.75 440.3 74.75 438.65 74.75 437 75.65 435.1 76.75 433.6 78.35 431.55 77 429.2 76.15 427 75.45 424.35 75.45 418.35 75.45 414.45 78.75 410.65 81.9 410.65 86.9 410.65 90.05 412.2 92.35
M 419 80.1
Q 421.05 77.7 424.35 77.7 425.95 77.7 427.2 78.35 428.6 78.95 429.6 80.2
L 430.3 81.3
Q 431.55 83.5 431.55 86.65 431.55 91.15 429.6 93.45 427.65 95.95 424.35 95.95 422.55 95.95 421.05 95.2 419.8 94.55 419 93.45 417.05 91.15 417.05 86.75 417.05 83.05 418.45 80.7
L 419 80.1
M 436.4 113.85
Q 436.6 114.75 436.6 115.3 436.6 118 433.2 119.9 429.95 121.75 424.25 121.75 419.95 121.75 417.45 120.55 417.05 120.4 416.85 120.2 414.25 118.7 414.25 116
L 414.35 114.85
Q 414.8 112.8 416.95 111.55
L 417.25 111.45
Q 420.35 109.95 426.3 109.95 435.15 109.95 436.4 113.85
M 532.25 89.4
Q 533.55 88.35 535.65 88.35 538.15 88.35 539.55 89.7
L 539.8 89.9
Q 540.75 90.75 541.2 91.75 541.85 92.75 542.35 94.3
L 543.8 94.3 543.8 94 543.3 86.9 542.35 86.9 540.9 88.45
Q 538.65 86.8 535.85 86.8 532.7 86.8 530.7 88.65 528.75 90.6 528.75 93.3 528.75 95.15 530 96.8 530.9 97.8 532.05 98.35 532.9 98.75 533.5 98.85
L 539.25 100.1
Q 542.3 100.6 542.45 102.95
L 542.45 103.25
Q 542.45 104.9 541.1 105.95 539.75 107 537.5 107 535.85 107 534.2 106.35 533.45 105.95 532.9 105.45 532.15 104.7 531.35 103.35 530.6 102.1 529.9 100.2
L 528.45 100.2 528.85 108.4 530.1 108.4 531.45 106.65 531.65 106.55
Q 533.05 107.65 534.45 108.2 535.1 108.4 535.95 108.5
L 537.5 108.6
Q 540.75 108.6 542.95 106.75 544.25 105.65 544.7 104.3 545.15 103.25 545.15 102.05 545.15 100.75 544.6 99.55 544.3 98.85 543.7 98.25 542.4 96.65 540.1 96.25 536.3 95.6 533.9 94.65 532.95 94.25 532.05 93.7 531.05 92.9 531.05 91.95 531.05 90.55 532.25 89.4
M 497.5 77.85
Q 497.7 78.45 497.7 78.8
L 497.7 90.5 497.5 90.2
Q 495.35 86.6 491.4 86.6 487.7 86.6 485.05 89.7 482.45 92.65 482.45 97.4 482.45 102.2 484.85 105.35 485.85 106.55 487.1 107.3 488.85 108.3 491 108.3 491.65 108.3 491.95 108.2 495.45 107.75 497.7 103.8
L 498.1 107.7 498.2 108 505.4 108 505.4 106.35 503.85 106.35
Q 501.4 106.35 501.4 103.15
L 501.4 74.65 493.25 75.05 493.25 76.7 494.7 76.7
Q 496.95 76.7 497.5 77.85
M 494.9 89.5
Q 495.45 89.95 496.05 90.7
L 496.55 91.55
Q 497.7 93.75 497.7 96.9 497.7 101.35 496.05 103.8 494.5 106.35 491.95 106.35 491.1 106.35 490.5 106.15 486.7 105.05 486.7 96.8 486.7 94.85 486.8 94 487.65 88.35 491.95 88.35 493.65 88.35 494.9 89.5
M 597.7 79.5
L 597.7 82.1 600.55 82.1
Q 601.65 82.1 602.4 82.4 604.15 83.1 604.5 85.15 604.7 86.05 604.7 86.7
L 604.7 107.9
Q 604.7 110.25 601.2 110.25
L 597.9 110.25 597.9 112.95 618.6 112.95 618.6 110.25 614.35 110.25
Q 613.7 110.25 613.45 110.15 610.55 109.95 610.55 107.7
L 610.55 100.6
Q 610.55 95.5 612.5 90.6 612.85 89.75 613.75 88.05 616.8 82.1 619.9 82.1
L 620.35 82.2
Q 620.55 82.3 620.55 82.5
L 620.45 82.7
Q 620.35 83.25 620.1 83.7 619.6 85.05 619.6 85.8
L 619.6 86.6
Q 619.85 87.95 620.55 88.65 621.3 89.65 622.5 89.7
L 623.1 89.8
Q 624.8 89.8 625.9 88.55 626.9 87.15 626.9 85.25 626.9 83.6 626.4 82.4 626.1 81.4 625.35 80.65 623.7 79 621.05 79 617.05 79 614.35 82.3 613.45 83.4 612.5 85.15 611 88 609.6 92.45
L 609.6 79 597.7 79.5
M 592.95 66.85
Q 592.05 65.45 590.5 64.15 585.65 60.25 577.1 60.25
L 551.15 60.25 551.15 63.05 556 63.05
Q 556.95 63.05 557.55 63.25 559.4 63.85 559.4 66
L 559.4 107.9
Q 559.4 110.25 556.4 110.25
L 551.15 110.25 551.15 112.95 576.4 112.95 576.4 110.25 569.9 110.25
Q 567 110 567 107.2
L 567 89.3 576.4 89.3
Q 580.95 89.3 584.7 88.05 587.7 87.2 590.2 85.25 595.2 81.35 595.2 74.65 595.2 70.1 592.95 66.85
M 577.6 63.25
Q 581.75 63.7 583.6 65.1 584.85 66.05 585.55 67.45 586.8 70.2 586.8 74.35 586.8 81 583.8 83.85 580.85 86.5 574.2 86.5
L 567 86.5 567 66.25
Q 567 63.95 568.65 63.35
L 569.1 63.25
Q 570.25 63.05 573.3 63.05 575.95 63.05 577.6 63.25
M 698.95 82.4
Q 701.65 82.95 701.95 85.35
L 702.05 86.2 702.05 107.3
Q 702.05 110.25 698.85 110.25
L 695.35 110.25 695.35 112.95 714.3 112.95 714.3 110.25 710.55 110.25
Q 707.9 110.25 707.9 107.8
L 707.9 79 694.6 79.5 694.6 82.3 697.4 82.3
Q 698.5 82.3 698.95 82.4
M 649.95 83
Q 651.05 83.95 651.5 85.05 652.1 86.35 652.1 87.85
L 652.1 92.8
Q 641.7 94 635.75 97.5 629.8 101.05 629.8 106.05 629.8 109.7 632.55 111.8
L 633.4 112.35
Q 636.1 114 640.3 114 641.4 114 642.55 113.75 645 113.55 647 112.45 649.25 111.2 652.45 107.9
L 653.05 109.55
Q 653.65 110.7 654.5 111.7 655.35 112.7 656.35 113.25 657.7 114 659.45 114 661.15 114 662.6 113.15 664 112.5 665.2 111.2
L 663.85 109.35 662.3 110.15 660.95 110.4 660.85 110.4
Q 658 110.4 658 105.75
L 658 87.45
Q 658 85.25 657.05 83.5 656.25 82.2 654.8 81.05 651.55 78.6 645.95 78.6 639.8 78.6 635.65 81.45 631.45 84.25 631.45 87.95 631.45 90.05 632.65 91.15 633.5 91.9 634.4 92.05 634.95 92.25 635.65 92.25 639.35 92.25 639.35 88.65 639.35 87.85 638.75 86.7
L 637.5 84.35
Q 637.5 83.45 639.65 82.3 641.8 81.15 644.5 81.15 646.05 81.15 647.5 81.55 649.05 82.15 649.95 83
M 652.1 100
Q 652.1 104.9 649.05 108 646 111.2 641.85 111.2 640.65 111.2 639.55 110.8 638.5 110.35 637.8 109.65 636.4 108.2 636.4 105.45 636.4 102.95 637.5 101.2 638.5 99.7 640.2 98.65 643.95 96.35 652.1 95.15
L 652.1 100
M 679.2 66
L 676.7 66
Q 676.7 78.8 667.45 80.35
L 667.45 82.8 673.3 82.8 673.3 105.15
Q 673.3 109.1 675.6 111.3 676.25 111.95 677.05 112.45 679.1 113.55 682.05 113.55 684.1 113.55 685.75 112.95 687.9 112.15 689.6 110.15 692.45 106.8 692.45 100.3
L 690 100.3
Q 690 105.15 688.35 107.6 686.8 110.05 684 110.05 683.1 110.05 682.5 109.85 681.3 109.5 680.55 108.5 679.2 107 679.2 104.2
L 679.2 82.8 690 82.8 690 79.5 679.2 79.5 679.2 66
M 731.25 86.3
L 731.45 86.1
Q 734.15 82.9 738.05 82.9
L 738.55 82.9
Q 742.7 83.1 744.35 86.6 745.55 89 745.55 93
L 745.55 107.3
Q 745.55 110.25 741.35 110.25
L 739.7 110.25 739.7 112.95 757.4 112.95 757.4 110.25 754.3 110.25
Q 752.9 110.2 752.25 109.45 751.45 108.7 751.45 107
L 751.45 90.7
Q 751.45 86.45 749.7 83.5 749.2 82.65 748.65 82.1 745.9 79 740.95 79 734.8 79 730.85 83.4 729.7 84.65 728.8 86.2
L 727.75 79 716.65 79.5 716.65 81.85 718.4 81.85
Q 719.95 81.85 720.95 82.4 722.4 83.15 722.7 84.95 722.8 85.35 722.8 86.2
L 722.8 107.7
Q 722.8 110.25 719.2 110.25
L 716.95 110.25 716.95 112.95 734.65 112.95 734.65 110.25 731.65 110.25
Q 730.2 110.2 729.5 109.55 728.8 108.75 728.8 107
L 728.8 94.65
Q 728.8 89.4 731.25 86.3
M 763.9 63.15
Q 766.1 63.75 766.45 66
L 766.55 67.15 766.55 107
Q 766.55 110.25 762.75 110.25
L 760.8 110.25 760.8 112.95 778.3 112.95 778.3 110.25 775.2 110.25
Q 773.65 110.25 773.05 109.55 772.3 108.8 772.3 107
L 772.3 93.7
Q 772.3 89 775.2 85.8 778 82.7 781.8 82.7
L 782 82.7
Q 785.2 82.8 787.15 85.05 787.7 85.75 787.95 86.4 789.1 88.55 789.1 91.55
L 789.1 107.3
Q 789.1 110.25 785.1 110.25
L 783 110.25 783 112.95 801.05 112.95 801.05 110.25 797.85 110.25
Q 794.95 110.1 794.95 107.3
L 794.95 91.55
Q 794.95 86.25 793 83.1
L 792.2 81.95
Q 789.45 78.6 784.45 78.6 779.35 78.6 775.2 82.3 773.9 83.4 772.3 85.35
L 772.3 59.55 759.65 60.25 759.65 62.95 762.15 62.95
Q 763.25 62.95 763.9 63.15
M 843.95 83.2
Q 845.9 81.55 849.3 81.55 850.9 81.55 852.5 81.95 854.55 82.6 856 83.95 856.95 84.75 857.75 86.1 859.15 88.15 860 91.15
L 862.35 91.15 861.55 79.2 860 79.2 857.75 81.65
Q 854.1 79 849.7 79 844.55 79 841.45 82.1 838.3 85.2 838.3 89.5 838.3 92.6 840.35 94.95 841.1 95.9 842.3 96.7 843.8 97.7 845.9 98.25
L 855.05 100.3
Q 859.2 101.05 860 103.8 860.2 104.45 860.2 105.45 860.2 108 858.05 109.65 855.85 111.4 852.25 111.4 848.6 111.4 846.1 109.65
L 844.95 108.75
Q 843 106.9 841.35 103.4 840.4 101.1 840.15 100.4
L 837.75 100.4 838.5 113.65 840.35 113.65 842.9 110.7
Q 845.3 112.4 847.35 113.15 849.3 113.95 851.85 114
L 852.25 114
Q 857.45 114 860.9 111 862.35 109.75 863.1 108.4 864.4 106.1 864.4 103.25 864.4 100.7 863.1 98.55 862.7 97.8 862.25 97.3 860 94.8 856.5 94.1 848.4 92.65 844.85 90.7 842.65 89.6 842.1 88.05 842 87.85 842 87.3 842 84.85 843.95 83.2
M 379.6 80.4
Q 375.15 85.45 375.15 93.15 375.15 100.85 379.6 105.9 380.5 106.95 381.65 107.85 385.55 110.85 390.8 110.85
L 391.4 110.85
Q 396.6 110.7 400.45 107.45 401.2 106.9 402.1 105.9 406.75 101.1 406.75 93.25 406.75 86.1 403.15 81.3
L 402.2 80.3
Q 397.7 75.45 390.9 75.45 384.05 75.45 379.6 80.4
M 381.75 92.75
Q 381.75 85.65 384.1 81.85
L 384.3 81.55
Q 386.7 78.05 390.9 78.05 392.2 78.05 393.25 78.35 395.85 79.1 397.7 81.75
L 397.8 81.95
Q 400.15 85.65 400.15 92.65 400.15 100.25 397.8 104.25 395.4 108.3 390.9 108.3 388.8 108.3 387 107.35 385.3 106.4 384.1 104.35 381.75 100.4 381.75 92.75
M 445.15 84.5
Q 443.4 88.2 443.4 93.15 443.4 100.9 447.8 105.9 448.7 106.95 449.85 107.85 453.85 110.85 459 110.85
L 459.65 110.85
Q 464.75 110.7 468.7 107.45 469.25 107 470.35 105.9 474.95 101.15 474.95 93.25 474.95 86.1 471.35 81.3
L 470.45 80.3
Q 465.9 75.45 459.1 75.45 452.25 75.45 447.8 80.4
L 447.2 81.1
Q 445.9 82.8 445.15 84.5
M 449.95 92.75
Q 449.95 85.6 452.35 81.85 452.45 81.6 452.55 81.55 454.85 78.05 459.1 78.05 460.4 78.05 461.5 78.35 464.15 79.1 465.9 81.75
L 466 81.95
Q 468.4 85.65 468.4 92.65 468.4 100.3 466 104.25 463.7 108.3 459.1 108.3 457 108.3 455.2 107.35 453.55 106.4 452.35 104.35 449.95 100.45 449.95 92.75
M 509.65 89.6
Q 506.85 92.7 506.85 97.6 506.85 102.55 509.65 105.55 510.55 106.55 511.6 107.2 513.6 108.5 516.2 108.6
L 516.6 108.6
Q 520.85 108.6 523.75 105.55 524.6 104.5 525.05 103.7 526.6 101.2 526.6 97.6 526.6 93.65 524.65 90.8
L 523.75 89.6
Q 520.9 86.5 516.75 86.5 512.45 86.5 509.65 89.6
M 511.15 94.3
Q 511.55 92 512.5 90.5 513.95 88.15 516.75 88.15 518.75 88.15 520 89.4 520.6 89.8 520.95 90.4
L 521.45 91.35
Q 522.5 93.6 522.5 97.3 522.5 102 521.05 104.5 519.45 107 516.75 107 515.85 107 514.9 106.65 513.4 106.1 512.4 104.6 510.95 102.1 510.95 97.3 510.95 96.2 511.15 94.3
M 703.9 59.55
Q 702.4 59.55 701.1 60.75 699.95 62.15 699.95 63.75 699.95 65.25 701.1 66.55 701.95 67.35 702.95 67.55 703.25 67.65 703.9 67.65 705.65 67.65 706.75 66.55 707.9 65.25 707.9 63.75 707.9 63.1 707.7 62.65 707.45 61.55 706.65 60.75 705.55 59.55 703.9 59.55
M 831.5 84.75
L 830.45 83.4
Q 825.95 78.6 819.15 78.6 812.2 78.6 807.8 83.5 803.4 88.55 803.4 96.3 803.4 104.05 807.8 109.05 808.9 110.15 809.75 110.8 813.8 114 819.05 114
L 819.35 114
Q 824.85 113.85 828.8 110.4
L 828.9 110.4
Q 829.75 109.75 830.35 109.05 835 104.2 835 96.4 835 89.45 831.5 84.75
M 810 95.85
Q 810 88.7 812.35 84.95
L 812.35 84.85
Q 814.75 81.15 819.15 81.15 820.5 81.15 821.8 81.55 824.3 82.4 825.95 84.85
L 826.15 85.15
Q 828.4 88.9 828.4 95.75 828.4 103.3 826.05 107.4 823.65 111.4 819.15 111.4 816.9 111.4 815.15 110.4 813.45 109.4 812.35 107.5 810 103.7 810 95.85 Z"/>
</g>
</defs>

<g transform="matrix( 1, 0, 0, 1, -335.55,-57.15) ">
<use xlink:href="#Layer0_0_MEMBER_0_FILL"/>
</g>
</svg>
