
<svg xmlns="http://www.w3.org/2000/svg" version="1.1" xmlns:xlink="http://www.w3.org/1999/xlink" preserveAspectRatio="none" x="0px" y="0px" width="524px" height="559px" viewBox="0 0 524 559">
<defs>
<g id="Layer1_0_MEMBER_0_FILL">
<path fill="#221F20" stroke="none" d="
M 1209.55 112.5
Q 1202.75 108.55 1189.35 103.25 1176.7 98.25 1157.45 96.65 1137.7 94.95 1125.1 98.15 1112.25 101.35 1100.2 110.3 1088.15 119.2 1081.05 130.7 1074.6 141.15 1072.9 154.35 1071.1 167.9 1075 179.2 1078.2 188.55 1088.65 197.35 1091.55 199.75 1097.6 204.65 1102.85 209.1 1106.2 213.2 1109.2 216.9 1113.75 222.6 1115.05 224.2 1116.8 226.05
L 1123.4 237.45
Q 1124.85 242.4 1125.2 244.2 1125.85 247.8 1125.1 250.95 1124.5 253.35 1123.2 256.25 1122.5 257.85 1121.15 260.65
L 1125.7 262.95
Q 1131.6 265.7 1138.35 267.75 1143.2 269.25 1150.1 271.45 1155.85 272.95 1163.45 272.95 1168.6 272.95 1180.5 269.45 1196.65 264.65 1196.05 263.05 1192.6 255.25 1191.5 252.4 1189.75 248 1188.95 241.2 1187.65 233 1187.5 229.75 1187.3 224.75 1189.35 218.65 1190.85 214.05 1198.5 215.6 1203.95 216.65 1213.35 221.2 1217.3 223.1 1226.35 218.2 1235.15 213.45 1237.15 209 1239.7 203.35 1237.25 190.85 1233.5 171.95 1233.15 165.55 1232.15 147.25 1231.9 145.35 1230.4 132.85 1226 126.85 1219.9 118.6 1209.55 112.5 Z"/>
</g>

<path id="Layer1_0_MEMBER_0_1_STROKES" stroke="#221F20" stroke-width="1" stroke-linejoin="miter" stroke-linecap="butt" stroke-miterlimit="10" fill="none" d="
M 194.29277343750005 238.9044403076172
Q 191.56961364746098 236.02567138671876 189.5466949462891 233.53592529296876 182.46647949218755 224.66620483398438 177.7982055664063 218.9086669921875 172.585299682617 212.52869262695313 164.41582031249982 205.60408630371094 155.00146789550786 197.97923889160157 150.4888031005862 194.24461975097657 134.2276489257813 180.55101623535157 129.2481567382813 166.0015625 123.17940063476544 148.41773071289063 125.98036499023465 127.33269348144532 128.62572021484357 106.79228820800782 138.66250915527348 90.5311340332031 149.71075744628934 72.636083984375 168.4616577148438 58.78687133789063 187.21255798339848 44.85985412597657 207.20833129882794 39.88036193847657 226.81508178710942 34.90086975097657 257.547885131836 37.54622497558594 287.50264282226567 40.03597106933594 307.1871978759764 47.81642761230469 328.03882141113286 56.06371154785157 338.62024230957036 62.21027221679688 354.7257873535159 71.70242919921876 364.21794433593755 84.5401824951172 371.0647460937503 93.8767303466797 373.3988830566409 113.32787170410157 373.78790588378934 116.2844451904297 375.3439971923831 144.76091613769532 375.88862915039067 154.71990051269532 381.72397155761723 184.1300262451172 385.5363952636719 203.58116760253907 381.5683624267581 212.37308349609376 378.4561798095706 219.29768981933594 364.76257629394513 226.68912353515626 350.6799499511719 234.31397094726563 344.5333892822264 231.3573974609375 329.90613098144536 224.27718200683594 321.4254333496094 222.6432861328125 309.521334838867 220.2313446044922 307.1871978759764 227.38936462402344 303.9972106933594 236.88152160644532 304.30842895507817 244.66197814941407 304.54184265136746 249.71927490234376 306.5647613525391 262.4792236328125 307.8096343994141 273.06064453125 310.53279418945317 279.9074462890625 312.24449462890607 284.34230651855466 317.61300964355473 296.4798187255859 318.5466644287112 298.9695648193359 293.4157897949219 306.4388031005859 274.89830322265607 311.88512268066404 266.8844329833985 311.88512268066404 255.05813903808576 311.88512268066404 246.1106140136717 309.5509857177734 235.37358398437505 306.12758483886716 227.82654113769513 303.79344787597654 217.32292480468732 300.60346069335935 208.14198608398442 296.32420959472654
L 201.06177062988309 292.7451995849609
Q 203.16249389648442 288.38814392089853 204.25175781250005 285.8983978271484 206.27467651367192 281.38573303222654 207.20833129882794 277.65111389160154 208.37539978027326 272.7494262695312 207.36394042968755 267.1474975585937 206.8193084716795 264.346533203125 204.56297607421902 256.6438812255859
L 194.29277343750005 238.9044403076172 Z"/>
</defs>

<g transform="matrix( 1.55609130859375, 0, 0, 1.55609130859375, -1543.55,-112.85) ">
<use xlink:href="#Layer1_0_MEMBER_0_FILL"/>

<use xlink:href="#Layer1_0_MEMBER_0_1_STROKES" transform="matrix( 0.64263916015625, 0, 0, 0.64263916015625, 991.95,72.5) "/>
</g>
</svg>
